<mxfile host="65bd71144e">
    <diagram id="LkSrgusfSbmn9OVGMHwl" name="Page-1">
        <mxGraphModel dx="815" dy="469" grid="1" gridSize="10" guides="1" tooltips="1" connect="1" arrows="1" fold="1" page="1" pageScale="1" pageWidth="827" pageHeight="1169" math="0" shadow="0">
            <root>
                <mxCell id="0"/>
                <mxCell id="1" parent="0"/>
                <mxCell id="3" value="Mobile Application" style="shape=module;align=left;spacingLeft=20;align=center;verticalAlign=top;" parent="1" vertex="1">
                    <mxGeometry x="220" y="160" width="160" height="190" as="geometry"/>
                </mxCell>
                <mxCell id="4" value="Server" style="shape=module;align=left;spacingLeft=20;align=center;verticalAlign=top;" parent="1" vertex="1">
                    <mxGeometry x="440" y="160" width="380" height="190" as="geometry"/>
                </mxCell>
                <mxCell id="22" style="edgeStyle=none;html=1;exitX=1;exitY=0.5;exitDx=0;exitDy=0;entryX=0;entryY=0.5;entryDx=0;entryDy=0;" edge="1" parent="1" source="5" target="8">
                    <mxGeometry relative="1" as="geometry"/>
                </mxCell>
                <mxCell id="24" value="Frames" style="edgeLabel;html=1;align=center;verticalAlign=middle;resizable=0;points=[];" vertex="1" connectable="0" parent="22">
                    <mxGeometry x="0.1417" y="-2" relative="1" as="geometry">
                        <mxPoint x="-15" y="-17" as="offset"/>
                    </mxGeometry>
                </mxCell>
                <mxCell id="5" value="Camera" style="html=1;" parent="1" vertex="1">
                    <mxGeometry x="250" y="200" width="110" height="50" as="geometry"/>
                </mxCell>
                <mxCell id="6" value="UI" style="html=1;" parent="1" vertex="1">
                    <mxGeometry x="250" y="270" width="110" height="50" as="geometry"/>
                </mxCell>
                <mxCell id="20" value="" style="edgeStyle=none;html=1;" edge="1" parent="1" source="7" target="16">
                    <mxGeometry relative="1" as="geometry"/>
                </mxCell>
                <mxCell id="7" value="Segement Repetition" style="html=1;" parent="1" vertex="1">
                    <mxGeometry x="660" y="200" width="130" height="50" as="geometry"/>
                </mxCell>
                <mxCell id="19" value="" style="edgeStyle=none;html=1;" edge="1" parent="1" source="8" target="7">
                    <mxGeometry relative="1" as="geometry"/>
                </mxCell>
                <mxCell id="8" value="Human Pose Estimation" style="html=1;" parent="1" vertex="1">
                    <mxGeometry x="480" y="200" width="130" height="50" as="geometry"/>
                </mxCell>
                <mxCell id="21" value="" style="edgeStyle=none;html=1;" edge="1" parent="1" source="16" target="17">
                    <mxGeometry relative="1" as="geometry"/>
                </mxCell>
                <mxCell id="16" value="Calculate Angles" style="html=1;" vertex="1" parent="1">
                    <mxGeometry x="660" y="270" width="130" height="50" as="geometry"/>
                </mxCell>
                <mxCell id="23" style="edgeStyle=none;html=1;exitX=0;exitY=0.5;exitDx=0;exitDy=0;entryX=1;entryY=0.5;entryDx=0;entryDy=0;" edge="1" parent="1" source="17" target="6">
                    <mxGeometry relative="1" as="geometry"/>
                </mxCell>
                <mxCell id="25" value="Prediction" style="edgeLabel;html=1;align=center;verticalAlign=middle;resizable=0;points=[];" vertex="1" connectable="0" parent="23">
                    <mxGeometry x="-0.2417" y="1" relative="1" as="geometry">
                        <mxPoint x="-21" y="14" as="offset"/>
                    </mxGeometry>
                </mxCell>
                <mxCell id="17" value="Predict Correctness" style="html=1;" vertex="1" parent="1">
                    <mxGeometry x="480" y="270" width="130" height="50" as="geometry"/>
                </mxCell>
            </root>
        </mxGraphModel>
    </diagram>
</mxfile>